# xmcd
#
# Track frame offsets:
#	150
#	12705
#	31042
#	44898
#	60972
#	78534
#	95379
#	109719
#	126209
#	142939
#	154956
#	169775
#
# Disc length: 2464 seconds
#
# Revision: 1
# Processed by: cddbd v1.4PL0 Copyright (c) Steve Scherf et al.
# Submitted via: audiograbber 1.81.02
#
DISCID=9a099e0c
DTITLE=Vários - Tchê Music ZH - Vol. 3
DYEAR=1900
DGENRE=Folklore
TTITLE0=Tchê Guri - Fandango Taquitá
TTITLE1=Tchê Garotos - Conheça o Rio Grande
TTITLE2=Tchê Barbaridade - Bica que bica
TTITLE3=Tchê Garotos - Saracoteando
TTITLE4=Tchê Barbaridade - Ela é bonita
TTITLE5=Tchê Guri - Foi assim
TTITLE6=Tchê Barbaridade - Vanera e mulher
TTITLE7=Tchê Garotos - Não Importa
TTITLE8=Tchê Barbaridade - Bugio kilha
TTITLE9=Tchê Guri - Não vá me dizer
TTITLE10=Tchê Garotos - Na casa da luz vermeia
TTITLE11=Tchê Guri - Os segredos da canção
EXTD=
EXTT0=
EXTT1=
EXTT2=
EXTT3=
EXTT4=
EXTT5=
EXTT6=
EXTT7=
EXTT8=
EXTT9=
EXTT10=
EXTT11=
PLAYORDER=
